{
  "accessors": [
    {
      "bufferView": 2,
      "componentType": 5126,
      "count": 12974,
      "max": [
        2922.559326171875,
        1162.657958984375,
        633.260986328125
      ],
      "min": [
        -300.760009765625,
        -1211.02099609375,
        -0.0005489999894052744
      ],
      "type": "VEC3"
    },
    {
      "bufferView": 2,
      "byteOffset": 155688,
      "componentType": 5126,
      "count": 12974,
      "max": [
        1.0,
        1.0,
        0.999995231628418
      ],
      "min": [
        -1.0,
        -0.9946454763412476,
        -0.999995231628418
      ],
      "type": "VEC3"
    },
    {
      "bufferView": 3,
      "componentType": 5126,
      "count": 12974,
      "max": [
        1.0,
        1.0,
        1.0,
        1.0
      ],
      "min": [
        -1.0,
        -0.9918237328529358,
        -1.0,
        -1.0
      ],
      "type": "VEC4"
    },
    {
      "bufferView": 1,
      "componentType": 5126,
      "count": 12974,
      "max": [
        0.9905570149421692,
        0.9994999766349792
      ],
      "min": [
        0.0005000000237487257,
        0.0005000000237487257
      ],
      "type": "VEC2"
    },
    {
      "bufferView": 0,
      "componentType": 5125,
      "count": 61764,
      "type": "SCALAR"
    }
  ],
  "asset": {
    "extras": {
      "author": "Leo.Lei (https://sketchfab.com/Leo.Lei)",
      "license": "CC-BY-4.0 (http://creativecommons.org/licenses/by/4.0/)",
      "source": "https://sketchfab.com/3d-models/ancient-bookshelves-in-china-8eb6aa848fc344679d546940e535e85b",
      "title": "Ancient bookshelves in China"
    },
    "generator": "Sketchfab-15.22.0",
    "version": "2.0"
  },
  "bufferViews": [
    {
      "buffer": 0,
      "byteLength": 247056,
      "name": "floatBufferViews",
      "target": 34963
    },
    {
      "buffer": 0,
      "byteLength": 103792,
      "byteOffset": 247056,
      "byteStride": 8,
      "name": "floatBufferViews",
      "target": 34962
    },
    {
      "buffer": 0,
      "byteLength": 311376,
      "byteOffset": 350848,
      "byteStride": 12,
      "name": "floatBufferViews",
      "target": 34962
    },
    {
      "buffer": 0,
      "byteLength": 207584,
      "byteOffset": 662224,
      "byteStride": 16,
      "name": "floatBufferViews",
      "target": 34962
    }
  ],
  "buffers": [
    {
      "byteLength": 869808,
      "uri": "scene.bin"
    }
  ],
  "images": [
    {
      "uri": "textures/24___Default_baseColor.jpeg"
    },
    {
      "uri": "textures/24___Default_metallicRoughness.png"
    },
    {
      "uri": "textures/24___Default_normal.png"
    }
  ],
  "materials": [
    {
      "doubleSided": true,
      "name": "24___Default",
      "normalTexture": {
        "index": 2
      },
      "occlusionTexture": {
        "index": 1
      },
      "pbrMetallicRoughness": {
        "baseColorTexture": {
          "index": 0
        },
        "metallicRoughnessTexture": {
          "index": 1
        }
      }
    }
  ],
  "meshes": [
    {
      "name": "defaultMaterial",
      "primitives": [
        {
          "attributes": {
            "NORMAL": 1,
            "POSITION": 0,
            "TANGENT": 2,
            "TEXCOORD_0": 3
          },
          "indices": 4,
          "material": 0,
          "mode": 4
        }
      ]
    }
  ],
  "nodes": [
    {
      "children": [
        1
      ],
      "matrix": [
        0.0005882352706976235,
        0.0,
        0.0,
        0.0,
        0.0,
        1.3061446828502265e-19,
        -0.0005882352706976235,
        0.0,
        0.0,
        0.0005882352706976235,
        1.3061446828502265e-19,
        0.0,
        0.0,
        0.0,
        0.0,
        1.0
      ],
      "name": "Sketchfab_model"
    },
    {
      "children": [
        2
      ],
      "matrix": [
        1.0,
        0.0,
        0.0,
        0.0,
        0.0,
        -4.371139006309477e-08,
        0.999999999999999,
        0.0,
        0.0,
        -0.999999999999999,
        -4.371139006309477e-08,
        0.0,
        0.0,
        0.0,
        0.0,
        1.0
      ],
      "name": "Collada visual scene group"
    },
    {
      "children": [
        3
      ],
      "matrix": [
        0.0,
        0.0,
        0.877453,
        0.0,
        0.0,
        0.877453,
        0.0,
        0.0,
        -0.877453,
        0.0,
        0.0,
        0.0,
        3935.680176,
        1062.61377,
        -1263.009644,
        1.0
      ],
      "name": "Box019"
    },
    {
      "mesh": 0,
      "name": "defaultMaterial"
    }
  ],
  "samplers": [
    {
      "magFilter": 9729,
      "minFilter": 9987,
      "wrapS": 10497,
      "wrapT": 10497
    }
  ],
  "scene": 0,
  "scenes": [
    {
      "name": "Sketchfab_Scene",
      "nodes": [
        0
      ]
    }
  ],
  "textures": [
    {
      "sampler": 0,
      "source": 0
    },
    {
      "sampler": 0,
      "source": 1
    },
    {
      "sampler": 0,
      "source": 2
    }
  ]
}
